<svg xmlns="http://www.w3.org/2000/svg" width="512.001" height="512.001" shape-rendering="geometricPrecision" text-rendering="geometricPrecision" image-rendering="optimizeQuality" fill-rule="evenodd" clip-rule="evenodd" viewBox="0 0 13546.66 13546.66"><path d="M6773.39 1575.6c2870.59 0 5197.67 2327.2 5197.67 5197.67 0 2870.59-2327.08 5197.79-5197.67 5197.79s-5197.67-2327.2-5197.67-5197.79c0-2870.47 2327.08-5197.67 5197.67-5197.67zm0-1575.6c1870.01 0 3563.7 758.25 4789.36 1983.91 1225.66 1225.66 1983.91 2919.22 1983.91 4789.48 0 1870.26-758.25 3563.83-1983.91 4789.37-1225.66 1225.66-2919.35 1983.91-4789.36 1983.91-1870.26 0-3563.82-758.25-4789.49-1983.91C758.24 10337.09-.01 8643.41-.01 6773.39c0-1870.01 758.25-3563.82 1983.91-4789.48C3209.57 758.37 4903.13 0 6773.39 0zm4319.98 2453.29C9987.89 1347.81 8460.43 663.93 6773.39 663.93c-1687.04 0-3214.62 684-4320.1 1789.36C1347.8 3558.77 663.92 5086.35 663.92 6773.39c0 1687.04 683.88 3214.5 1789.37 4319.98 1105.48 1105.49 2632.94 1789.37 4320.1 1789.37 1687.04 0 3214.5-683.88 4319.98-1789.37 1105.48-1105.36 1789.36-2632.82 1789.36-4319.98 0-1687.16-683.88-3214.62-1789.36-4320.1zm-5695 6400.8c-16.87 62.67-40.76 108.6-69.69 138.4-20.81 20.81-53.81 38.78-98.39 52.7l-626 190.98c38.66-72.65 71.66-122.27 100.47-150.23 28.69-26.71 78.56-53.68 149.12-80.52-54.67-34.97-93.46-66.62-117.22-96.66-25-29.8-36.94-59.72-36.94-88.54 0-24.87 8.12-53.68 22.9-85.57 16.01-31.89 35.83-63.54 60.7-94.44 126.34-168.33 250.82-251.81 374.08-251.81 36.82 0 65.87 11.94 88.65 35.71 21.8 24.99 32.76 55.78 32.76 94.69 0 30.9-3.94 57.62-12.81 79.66-8.99 22.91-26.84 55.54-53.81 100.36-95.55-47.66-161.18-71.54-195.9-71.54-34.85 0-68.71 8.86-103.56 25.98-22.77 11.82-44.82 27.7-63.78 46.66 0 25.86 46.92 64.65 139.26 117.47 92.6 52.7 160.32 78.68 200.1 78.68 25.85 0 95.67-14.03 210.06-41.98zm5.91-1851.05c0 173.37-20.93 331.59-61.69 474.79-41.74 143.45-121.41 335.42-239.74 576.14l-176.08-71.54c47.65-248.85 71.54-450.91 71.54-607.17 0-118.2-10.1-292.56-28.93-521.34-19.83-229.89-43.72-456.82-73.51-681.78-29.06-223.86-76.72-492.66-143.45-803.07-22.78-109.34-34.73-183.96-34.73-224.72 0-59.97 29.8-162.41 90.51-307.71 59.71-145.17 144.31-320.39 252.66-526.39l177.19 1033.08c65.63 393.04 110.57 733.38 136.43 1021.02 19.83 221.88 29.8 434.78 29.8 638.69zm497.09 1701.81v-817.97h817.96v817.97h-817.96zm3041.12-853.8H7620.05c-128.18 0-227.06-27.09-295.52-81.64-83.61-66.74-125.59-175.09-125.59-324.33 0-86.68 5.04-179.16 14.03-277.79 8.87-99.36 21.8-199.96 39.77-301.42l119.57-6.04c15.76 68.71 49.74 118.33 103.43 150.22 52.7 30.91 117.34 46.92 193.07 46.92h998.97c-44.57-286.66-122.39-514.57-232.72-685.85-91.61-142.22-218.93-264.61-382.08-368.17l211.91-910.44c250.7 189.01 428.87 431.83 533.41 729.44 96.54 274.71 144.19 639.18 144.19 1091.57v937.53z"/></svg>